<?xml version="1.0" standalone="no"?>
<!DOCTYPE svg PUBLIC "-//W3C//DTD SVG 20010904//EN"
 "http://www.w3.org/TR/2001/REC-SVG-20010904/DTD/svg10.dtd">
<svg version="1.0" xmlns="http://www.w3.org/2000/svg"
 width="625.000000pt" height="625.000000pt" viewBox="0 0 625.000000 625.000000"
 preserveAspectRatio="xMidYMid meet">

<g transform="translate(0.000000,625.000000) scale(0.100000,-0.100000)"
fill="#000000" stroke="none">
<path d="M2958 5317 c-51 -35 -90 -97 -93 -151 -2 -34 -10 -54 -28 -72 -22
-22 -25 -34 -30 -127 -4 -100 -4 -102 22 -125 25 -22 25 -23 4 -17 -20 6 -23
3 -23 -22 0 -22 2 -25 10 -13 7 11 9 -4 9 -48 -1 -36 3 -68 10 -75 9 -9 10 -1
6 31 -3 27 0 56 10 79 l16 38 25 -33 c22 -28 31 -32 74 -32 47 0 48 1 64 40 9
22 20 40 25 40 5 0 18 -17 28 -37 16 -35 22 -38 64 -41 41 -3 50 1 68 24 11
15 21 32 21 39 0 7 7 18 15 25 13 10 15 9 16 -11 1 -21 2 -21 6 -4 3 11 11 24
18 30 17 13 26 147 13 194 -5 20 -19 44 -30 54 -24 20 -41 49 -58 102 -7 20
-25 52 -42 70 -25 30 -33 33 -54 25 -32 -12 -34 -12 -34 0 0 6 10 10 23 10 20
1 21 1 4 11 -11 6 -30 9 -44 6 -14 -3 -39 -1 -54 3 -22 7 -36 3 -61 -13z m226
-115 c2 -4 -14 -8 -37 -9 -31 -1 -37 1 -22 7 26 11 53 12 59 2z m-213 -30 c-7
-2 -18 1 -23 6 -8 8 -4 9 13 5 13 -4 18 -8 10 -11z m-55 -17 c-10 -8 -24 -11
-30 -8 -6 4 0 10 14 14 36 10 37 10 16 -6z m214 -120 c26 -19 63 -57 81 -85
19 -27 40 -50 47 -50 6 0 12 -7 12 -16 0 -8 -4 -12 -10 -9 -5 3 -35 6 -67 7
-57 1 -51 15 7 18 23 1 23 2 5 9 -35 14 -99 -1 -110 -27 -11 -26 -65 -32 -65
-7 0 18 -31 35 -64 35 -29 0 -31 7 -14 47 19 44 45 74 80 94 44 24 43 24 98
-16z m-237 -108 c-20 -53 -43 -70 -43 -31 0 14 4 22 10 19 6 -3 10 -1 10 5 0
13 31 62 36 57 3 -2 -4 -25 -13 -50z"/>
<path d="M2870 4701 c1 -23 12 -60 34 -112 5 -12 1 -18 -16 -22 -46 -12 -118
-69 -162 -129 -26 -34 -46 -69 -46 -78 0 -8 -6 -24 -14 -35 -7 -11 -16 -33
-20 -49 -4 -16 -18 -43 -31 -61 -18 -23 -32 -67 -50 -156 -14 -68 -35 -152
-46 -186 -11 -35 -18 -67 -15 -71 14 -22 136 -85 185 -95 29 -7 56 -17 58 -24
3 -7 -11 -48 -30 -90 -20 -43 -50 -124 -67 -180 -25 -81 -30 -110 -24 -148 3
-26 12 -49 20 -52 9 -3 12 -21 8 -66 -2 -34 -7 -64 -12 -68 -4 -4 -27 -4 -52
1 -25 5 -67 9 -94 10 l-49 0 24 -18 c26 -20 94 -42 128 -42 22 0 25 -9 15 -59
-5 -25 -12 -31 -33 -32 -24 -2 -24 -2 -3 -6 19 -4 22 -9 18 -31 -10 -48 -26
-206 -26 -259 0 -69 -7 -87 -29 -71 -9 7 -5 0 8 -14 17 -19 28 -25 39 -19 23
13 53 1 47 -18 -4 -15 9 -19 100 -30 58 -6 111 -8 118 -4 6 4 127 8 267 8 261
1 421 11 431 27 3 5 31 13 63 18 47 8 181 53 195 66 2 2 -1 9 -6 16 -5 7 -20
40 -32 73 -25 66 -113 257 -121 265 -15 14 -50 64 -50 71 0 5 9 9 20 9 11 0
20 5 20 10 0 6 15 10 33 10 18 0 37 4 42 9 6 5 19 11 30 14 11 3 4 5 -15 4
-54 -3 -190 14 -196 24 -3 5 0 9 6 9 7 0 8 6 1 19 -8 14 -7 22 5 32 56 47 61
173 14 366 -17 67 -30 142 -30 166 0 42 1 44 25 39 25 -4 35 11 15 23 -6 4 -8
11 -4 16 10 16 102 59 128 59 14 0 28 5 31 10 3 6 -14 49 -38 98 -25 48 -61
137 -80 197 -20 61 -46 135 -58 165 -12 30 -23 67 -24 81 -7 66 -89 154 -181
195 -69 30 -102 30 -138 -2 -25 -23 -28 -29 -22 -69 8 -52 46 -111 69 -109 9
1 17 0 17 -3 0 -11 -31 -61 -45 -73 -9 -8 -27 -35 -40 -61 -23 -45 -44 -59
-90 -59 -27 0 -184 145 -164 152 8 3 19 30 25 69 l12 64 1 -55 c1 -30 5 -60 9
-66 10 -15 101 -43 108 -33 3 5 0 34 -5 66 -15 79 -14 88 12 101 21 10 21 11
-6 11 -37 1 -87 28 -87 47 0 8 -7 28 -15 44 -9 17 -11 30 -6 30 6 0 18 -14 26
-31 14 -26 20 -30 43 -24 15 4 42 18 61 33 l35 26 -30 8 c-16 5 -59 6 -97 2
l-67 -6 -40 40 c-40 39 -40 39 -40 13z m330 -496 c0 -18 -41 -46 -74 -49 -28
-3 -86 27 -86 45 0 8 4 8 15 -1 8 -7 35 -14 59 -16 34 -2 49 2 62 17 21 23 24
24 24 4z m-1 -115 c46 -61 47 -66 26 -117 -10 -24 -15 -71 -15 -149 0 -77 -4
-114 -11 -114 -7 0 -10 23 -9 68 5 112 2 130 -17 128 -11 0 -25 14 -38 36 -13
26 -25 36 -36 33 -18 -6 -69 37 -69 58 0 8 15 37 33 63 27 42 37 49 63 49 27
0 38 -9 73 -55z m196 -52 c18 -8 25 -19 25 -39 0 -15 5 -31 10 -34 16 -10 12
-34 -11 -67 -15 -21 -25 -26 -32 -19 -7 7 -6 16 5 28 8 10 13 24 10 32 -2 8 0
11 6 7 6 -4 8 2 5 14 -7 26 -23 26 -23 0 0 -11 -4 -20 -10 -20 -5 0 -10 -7
-10 -16 0 -14 -3 -14 -15 -4 -9 7 -18 10 -21 7 -3 -3 4 -10 15 -17 24 -12 28
-30 7 -30 -22 0 -69 61 -57 73 6 6 11 25 11 42 0 23 6 35 23 43 29 14 32 14
62 0z m-296 -166 c0 -85 -16 -73 -19 14 -2 68 -1 76 10 69 6 -3 10 -41 9 -83z
m301 54 c0 -2 -8 -10 -17 -17 -16 -13 -17 -12 -4 4 13 16 21 21 21 13z"/>
<path d="M3132 4075 c-2 -65 12 -59 22 10 4 29 3 33 -3 15 l-8 -25 -5 30 c-3
18 -5 7 -6 -30z"/>
<path d="M3097 4048 c-3 -24 -2 -47 4 -52 5 -6 9 9 9 42 0 63 -5 67 -13 10z"/>
<path d="M3060 4055 c-13 -16 -7 -45 10 -45 5 0 10 14 10 30 0 34 -3 36 -20
15z"/>
<path d="M3160 4033 c0 -17 -4 -35 -10 -38 -25 -16 -1 -69 27 -58 11 4 12 16
7 52 -9 60 -23 88 -24 44z"/>
<path d="M3190 4048 c0 -7 5 -20 10 -28 8 -12 10 -11 10 7 0 12 -4 25 -10 28
-5 3 -10 0 -10 -7z"/>
<path d="M3336 4027 c-11 -8 -16 -21 -13 -33 4 -17 5 -16 6 4 1 12 7 22 16 22
8 0 15 5 15 10 0 13 -3 13 -24 -3z"/>
<path d="M3360 3996 c0 -8 4 -17 9 -20 5 -4 7 3 4 14 -6 23 -13 26 -13 6z"/>
<path d="M3315 3961 c-3 -5 -2 -12 3 -15 5 -3 9 1 9 9 0 17 -3 19 -12 6z"/>
<path d="M3027 4705 c-18 -13 -17 -13 1 -20 11 -3 32 -3 47 1 26 6 29 11 10
14 -5 1 -17 6 -25 10 -9 5 -23 3 -33 -5z"/>
<path d="M3136 4535 c-11 -8 -16 -15 -10 -15 5 0 18 7 28 15 11 8 16 15 10 15
-5 0 -18 -7 -28 -15z"/>
<path d="M2518 2943 c7 -3 16 -2 19 1 4 3 -2 6 -13 5 -11 0 -14 -3 -6 -6z"/>
<path d="M2510 2790 c0 -5 5 -10 11 -10 5 0 7 5 4 10 -3 6 -8 10 -11 10 -2 0
-4 -4 -4 -10z"/>
<path d="M3061 2000 c-2 -31 -27 -62 -64 -78 -39 -17 -44 -16 -50 16 -3 16
-15 39 -26 53 -15 19 -22 21 -32 12 -10 -10 -10 -18 -1 -38 16 -34 15 -44 -2
-22 -13 17 -15 13 -21 -37 -13 -99 4 -241 46 -396 73 -273 97 -431 65 -443 -7
-3 -16 -25 -20 -49 -8 -52 -49 -198 -82 -292 -29 -81 -42 -203 -25 -234 6 -12
28 -26 49 -32 56 -15 192 -12 245 6 40 13 48 21 63 59 13 34 15 59 9 110 -6
58 -5 65 11 65 15 0 16 8 11 73 -3 39 -12 92 -21 117 -9 25 -16 64 -16 88 0
52 -22 107 -47 121 -16 8 -23 32 -36 128 -21 145 -21 187 -2 286 8 43 15 103
15 133 0 95 -66 430 -69 354z m39 -955 c0 -13 -5 -27 -10 -30 -7 -4 -7 -13 0
-26 8 -15 7 -19 -3 -19 -11 0 -15 15 -15 54 0 43 3 54 14 49 8 -3 14 -16 14
-28z m61 -62 c-10 -17 -10 -16 -11 3 0 23 13 41 18 25 2 -6 -1 -18 -7 -28z
m-128 -50 c-7 -2 -19 -2 -25 0 -7 3 -2 5 12 5 14 0 19 -2 13 -5z m-66 -39 c-3
-3 -12 -4 -19 -1 -8 3 -5 6 6 6 11 1 17 -2 13 -5z m100 -230 c-3 -3 -12 -4
-19 -1 -8 3 -5 6 6 6 11 1 17 -2 13 -5z"/>
<path d="M3475 1850 c-9 -75 10 -271 34 -350 11 -36 35 -110 54 -166 34 -99
67 -256 67 -321 0 -28 -19 -73 -40 -93 -3 -3 -7 -25 -9 -50 -1 -25 -7 -49 -11
-55 -4 -5 -16 -36 -25 -69 -24 -84 -14 -153 28 -193 28 -27 36 -29 65 -21 20
5 32 15 32 26 1 15 2 15 15 -2 9 -11 15 -41 15 -70 0 -48 3 -53 55 -102 60
-57 106 -74 200 -74 72 0 179 28 193 51 14 21 -6 95 -44 166 -13 25 -24 51
-24 58 0 7 -22 40 -49 73 -26 34 -54 76 -62 94 -7 18 -31 60 -54 93 -22 33
-47 74 -54 92 -9 22 -22 34 -41 38 -32 7 -34 13 -51 145 -8 63 -9 152 -4 265
9 221 9 219 -22 364 -22 98 -29 118 -36 98 -9 -28 -51 -50 -79 -41 -15 4 -18
12 -14 32 7 31 -6 58 -23 48 -6 -4 -11 -23 -11 -42 l0 -34 -27 17 c-16 10 -31
22 -35 28 -35 52 -36 52 -43 -5z m356 -945 c23 -59 22 -55 7 -55 -11 1 -58 85
-58 104 0 4 7 6 16 4 9 -2 25 -25 35 -53z m214 -355 c-3 -5 -16 -10 -28 -10
-18 0 -19 2 -7 10 20 13 43 13 35 0z"/>
</g>
</svg>
